<svg xmlns="http://www.w3.org/2000/svg"  viewBox="0 0 48 48" width="96px" height="96px"><circle cx="24" cy="24" r="20" fill="#dd2c00"/><path fill="#fff" d="M24,16c-4.418,0-8,3.582-8,8s3.582,8,8,8s8-3.582,8-8S28.418,16,24,16z M24,30c-3.313,0-6-2.688-6-6	s2.688-6,6-6c1.914,0.004,3.715,0.918,4.84,2.469c-0.883-0.816-2.039-1.266-3.238-1.27c-2.652,0-4.801,2.148-4.801,4.801	s2.148,4.801,4.801,4.801c1.199-0.004,2.355-0.453,3.238-1.266C27.715,29.082,25.914,29.996,24,30z M28.512,26.117l-2.488-0.809	l-1.535,2.117v-2.617L22,24l2.488-0.809v-2.613l1.535,2.113l2.488-0.805L26.977,24L28.512,26.117z"/></svg>