<svg xmlns="http://www.w3.org/2000/svg"  viewBox="0 0 48 48" width="96px" height="96px"><path fill="#d50000" d="M24,4C15.421,4,8.125,9.412,5.284,17h37.431C39.875,9.412,32.579,4,24,4z"/><path fill="#eceff1" d="M44,24c0-2.467-0.468-4.818-1.284-7H5.284C4.468,19.182,4,21.533,4,24s0.468,4.818,1.284,7h37.431	C43.532,28.818,44,26.467,44,24z"/><path fill="#424242" d="M42.716,31H5.284C8.125,38.588,15.421,44,24,44S39.875,38.588,42.716,31z"/><path fill="#388e3c" d="M15.305,24.59l2.164-1.574h-2.672l-0.828-2.543l-0.824,2.543h-2.676l2.164,1.574l-0.828,2.543	l2.164-1.574l2.164,1.574L15.305,24.59z"/><path fill="#388e3c" d="M35.305,24.59l2.164-1.574h-2.672l-0.828-2.543l-0.824,2.543h-2.676l2.164,1.574l-0.828,2.543	l2.164-1.574l2.164,1.574L35.305,24.59z"/></svg>